grf
version=1
nRows=36
nColumns=19
inDegrees=yes
endheader
time	ground_force_1_vx	ground_force_1_vy	ground_force_1_vz	ground_force_1_px	ground_force_1_py	ground_force_1_pz	ground_moment_1_mx	ground_moment_1_my	ground_moment_1_mz	ground_force_2_vx	ground_force_2_vy	ground_force_2_vz	ground_force_2_px	ground_force_2_py	ground_force_2_pz	ground_moment_2_mx	ground_moment_2_my	ground_moment_2_mz
20.212000	3.545188	1709.313493	-234.217565	0.201127	0.000000	-1.014123	-0.000000	39.031721	0.000000	8.805953	1345.303945	227.601119	0.208996	0.000000	-1.450117	-0.000000	-29.547254	-0.000000
20.213000	3.453776	1709.427002	-234.203378	0.200707	0.000000	-1.014430	-0.000000	39.033902	0.000000	8.760191	1346.067863	227.827613	0.209835	0.000000	-1.448718	-0.000000	-29.526761	-0.000000
20.214000	3.363563	1709.592960	-234.194254	0.200610	0.000000	-1.013768	-0.000000	39.035897	0.000000	8.709738	1346.812273	228.053881	0.209967	0.000000	-1.448469	-0.000000	-29.505049	-0.000000
20.215000	3.274648	1709.813343	-234.191648	0.200972	0.000000	-1.013815	0.000000	39.037568	0.000000	8.652716	1347.533620	228.279486	0.209834	0.000000	-1.448062	-0.000000	-29.482084	-0.000000
20.216000	3.187167	1710.089572	-234.197034	0.200794	0.000000	-1.014345	0.000000	39.038761	0.000000	8.587325	1348.228664	228.503982	0.210269	0.000000	-1.446269	-0.000000	-29.457853	-0.000000
20.217000	3.101318	1710.422569	-234.211811	0.200770	0.000000	-1.014258	0.000000	39.039328	0.000000	8.511779	1348.894363	228.726895	0.209746	0.000000	-1.448006	-0.000000	-29.432352	-0.000000
20.218000	3.017417	1710.812636	-234.237219	0.200554	0.000000	-1.016127	0.000000	39.039146	0.000000	8.424275	1349.527673	228.947717	0.210233	0.000000	-1.447960	-0.000000	-29.405577	-0.000000
20.219000	2.935994	1711.258806	-234.274306	0.200983	0.000000	-1.013835	0.000000	39.038110	0.000000	8.323078	1350.125422	229.165909	0.210072	0.000000	-1.449436	-0.000000	-29.377530	-0.000000
20.220000	2.857824	1711.758446	-234.323898	0.200705	0.000000	-1.014122	0.000000	39.036136	0.000000	8.206647	1350.684279	229.380904	0.210269	0.000000	-1.448739	-0.000000	-29.348225	-0.000000
20.221000	2.783818	1712.308081	-234.386578	0.200907	0.000000	-1.013949	0.000000	39.033151	0.000000	8.073742	1351.200624	229.592121	0.210374	0.000000	-1.448357	-0.000000	-29.317696	-0.000000
20.222000	2.714882	1712.904686	-234.462723	0.200974	0.000000	-1.013848	0.000000	39.029103	0.000000	7.923450	1351.670413	229.799008	0.210441	0.000000	-1.448184	-0.000000	-29.286006	-0.000000
20.223000	2.651858	1713.546211	-234.552623	0.200628	0.000000	-1.014161	0.000000	39.023975	0.000000	7.755197	1352.089109	230.001081	0.210074	0.000000	-1.446261	-0.000000	-29.253250	-0.000000
20.224000	2.595493	1714.231383	-234.656581	0.201461	0.000000	-1.013845	0.000000	39.017795	0.000000	7.568743	1352.451646	230.197936	0.210566	0.000000	-1.448396	-0.000000	-29.219559	-0.000000
20.225000	2.546396	1714.959541	-234.774862	0.200902	0.000000	-1.014247	0.000000	39.010611	0.000000	7.364169	1352.752716	230.389150	0.211204	0.000000	-1.448999	-0.000000	-29.185085	-0.000000
20.226000	2.504991	1715.730517	-234.907634	0.200955	0.000000	-1.014383	0.000000	39.002466	0.000000	7.141856	1352.987632	230.574155	0.211183	0.000000	-1.448858	-0.000000	-29.149990	-0.000000
20.227000	2.471467	1716.544266	-235.054960	0.200359	0.000000	-1.013116	0.000000	38.993387	0.000000	6.902447	1353.153122	230.752241	0.211583	0.000000	-1.449177	-0.000000	-29.114436	-0.000000
20.228000	2.445743	1717.400677	-235.216735	0.199938	0.000000	-1.014706	0.000000	38.983386	0.000000	6.646818	1353.247366	230.922621	0.211761	0.000000	-1.449118	-0.000000	-29.078589	-0.000000
20.229000	2.427472	1718.299314	-235.392612	0.200965	0.000000	-1.015167	0.000000	38.972473	0.000000	6.376024	1353.269675	231.084512	0.211817	0.000000	-1.450574	-0.000000	-29.042620	-0.000000
20.230000	2.416096	1719.238780	-235.581996	0.200579	0.000000	-1.014263	0.000000	38.960668	0.000000	6.091237	1353.220428	231.237218	0.212099	0.000000	-1.449448	-0.000000	-29.006687	-0.000000
20.231000	2.410925	1720.216739	-235.784111	0.201078	0.000000	-1.013776	0.000000	38.947994	0.000000	5.793696	1353.100744	231.380211	0.211902	0.000000	-1.446986	-0.000000	-28.970925	-0.000000
20.232000	2.411212	1721.230760	-235.998071	0.200081	0.000000	-1.015220	0.000000	38.934470	0.000000	5.484631	1352.911498	231.513144	0.212591	0.000000	-1.449048	-0.000000	-28.935464	-0.000000
20.233000	2.416217	1722.278655	-236.222936	0.200900	0.000000	-1.013968	0.000000	38.920126	0.000000	5.165264	1352.652770	231.635828	0.213042	0.000000	-1.449222	-0.000000	-28.900458	-0.000000
20.234000	2.425205	1723.358235	-236.457746	0.200218	0.000000	-1.014592	0.000000	38.904999	0.000000	4.836855	1352.324363	231.748225	0.213310	0.000000	-1.449440	-0.000000	-28.866085	-0.000000
20.235000	2.437445	1724.467273	-236.701523	0.200368	0.000000	-1.015284	0.000000	38.889133	0.000000	4.500679	1351.926615	231.850417	0.214693	0.000000	-1.452072	-0.000000	-28.832531	-0.000000
20.236000	2.452209	1725.603288	-236.953250	0.199888	0.000000	-1.015510	0.000000	38.872571	0.000000	4.157892	1351.461071	231.942570	0.213625	0.000000	-1.449110	-0.000000	-28.799966	-0.000000
20.237000	2.468752	1726.762578	-237.211846	0.200379	0.000000	-1.014773	0.000000	38.855371	0.000000	3.809435	1350.930756	232.024893	0.213855	0.000000	-1.449931	-0.000000	-28.768526	-0.000000
20.238000	2.486322	1727.939458	-237.476160	0.200110	0.000000	-1.014267	0.000000	38.837609	0.000000	3.456055	1350.339732	232.097602	0.214634	0.000000	-1.450084	-0.000000	-28.738332	-0.000000
20.239000	2.504282	1729.126841	-237.744990	0.200356	0.000000	-1.013989	0.000000	38.819383	0.000000	3.098364	1349.692388	232.160887	0.214323	0.000000	-1.449021	-0.000000	-28.709517	-0.000000
20.240000	2.522301	1730.317610	-238.017136	0.200661	0.000000	-1.014636	0.000000	38.800816	0.000000	2.736911	1348.992857	232.214962	0.215115	0.000000	-1.449911	-0.000000	-28.682225	-0.000000
20.241000	2.540447	1731.505515	-238.291425	0.200532	0.000000	-1.015020	0.000000	38.782047	0.000000	2.372248	1348.244782	232.260171	0.214874	0.000000	-1.450041	-0.000000	-28.656613	-0.000000
20.242000	2.559101	1732.685191	-238.566674	0.200151	0.000000	-1.015115	0.000000	38.763200	0.000000	2.004978	1347.451669	232.297051	0.215632	0.000000	-1.450103	-0.000000	-28.632834	-0.000000
20.243000	2.578852	1733.851639	-238.841662	0.200391	0.000000	-1.015770	0.000000	38.744385	0.000000	1.635729	1346.617288	232.326270	0.215666	0.000000	-1.449470	-0.000000	-28.611015	-0.000000
20.244000	2.600430	1734.999753	-239.115163	0.200071	0.000000	-1.014804	0.000000	38.725700	0.000000	1.265114	1345.745542	232.348452	0.215530	0.000000	-1.449846	0.000000	-28.591237	-0.000000
20.245000	2.624658	1736.124343	-239.386054	0.200675	0.000000	-1.015038	0.000000	38.707236	0.000000	0.893758	1344.840194	232.364046	0.215997	0.000000	-1.449978	0.000000	-28.573537	-0.000000
20.246000	2.652457	1737.220508	-239.653354	0.200481	0.000000	-1.014313	0.000000	38.689073	0.000000	0.522365	1343.905013	232.373325	0.215654	0.000000	-1.449618	0.000000	-28.557932	-0.000000
20.247000	2.684861	1738.283936	-239.916165	0.200541	0.000000	-1.015730	0.000000	38.671293	0.000000	0.151786	1342.944202	232.376490	0.215652	0.000000	-1.452660	0.000000	-28.544428	-0.000000
